<?xml version="1.0" standalone="no"?>
<!DOCTYPE svg PUBLIC "-//W3C//DTD SVG 20010904//EN"
 "http://www.w3.org/TR/2001/REC-SVG-20010904/DTD/svg10.dtd">
<svg version="1.0" xmlns="http://www.w3.org/2000/svg"
 width="790.000000pt" height="390.000000pt" viewBox="0 0 790.000000 390.000000"
 preserveAspectRatio="xMidYMid meet">
<metadata>
Created by potrace 1.16, written by Peter Selinger 2001-2019
</metadata>
<g transform="translate(0.000000,390.000000) scale(0.100000,-0.100000)"
fill="#000000" stroke="none">
<path d="M1852 2498 c-14 -14 -16 -84 -3 -92 5 -4 5 -18 -1 -34 -13 -35 -4
-78 18 -86 45 -17 77 31 56 86 -6 16 -6 30 -1 34 13 8 11 78 -3 92 -7 7 -21
12 -33 12 -12 0 -26 -5 -33 -12z"/>
<path d="M3891 2421 c-21 -13 -26 -115 -6 -131 13 -11 13 -14 0 -27 -18 -18
-20 -104 -3 -121 15 -15 51 -15 66 0 17 17 15 103 -3 121 -13 13 -13 16 0 27
11 9 14 28 12 67 -3 52 -16 73 -42 73 -5 0 -16 -4 -24 -9z"/>
<path d="M3372 2358 c-13 -16 -13 -399 0 -415 6 -7 5 -14 -2 -18 -14 -8 -13
-48 2 -63 8 -8 8 -15 0 -25 -8 -9 -12 -151 -13 -478 -1 -556 -3 -521 18 -537
21 -15 35 -15 56 1 16 11 18 47 16 477 0 256 -1 478 0 494 1 15 -4 35 -10 43
-9 10 -9 17 -1 25 15 15 16 55 2 63 -7 4 -8 11 -2 18 13 16 13 399 0 415 -6 6
-21 12 -33 12 -12 0 -27 -6 -33 -12z"/>
<path d="M1851 2127 c-10 -13 -11 -161 -12 -1157 0 -136 2 -156 17 -167 22
-16 36 -16 58 0 15 11 17 31 17 167 -1 996 -2 1144 -12 1157 -6 7 -22 13 -34
13 -12 0 -28 -6 -34 -13z"/>
<path d="M3882 1928 c-7 -7 -12 -21 -12 -33 0 -12 5 -26 12 -33 9 -9 9 -15 0
-24 -15 -15 -16 -136 -2 -173 7 -17 7 -24 0 -20 -9 5 -18 -708 -10 -780 3 -29
19 -45 45 -45 26 0 42 16 45 45 8 72 -1 785 -10 780 -7 -4 -7 3 0 20 14 37 13
158 -2 173 -9 9 -9 15 0 24 28 28 7 78 -33 78 -12 0 -26 -5 -33 -12z"/>
<path d="M4392 1838 c-13 -16 -14 -116 -1 -123 5 -4 5 -13 -1 -25 -17 -31 -13
-156 6 -174 42 -43 74 -6 74 85 0 39 -5 79 -10 89 -6 12 -6 21 -1 25 13 7 12
107 -1 123 -6 6 -21 12 -33 12 -12 0 -27 -6 -33 -12z"/>
<path d="M2367 1726 c-9 -9 -14 -40 -15 -88 -2 -61 1 -79 17 -96 10 -12 22
-22 26 -22 4 0 16 10 26 22 16 17 19 35 17 96 -2 74 -13 102 -43 102 -7 0 -20
-6 -28 -14z"/>
<path d="M2356 1504 c-3 -8 -6 -128 -7 -266 -2 -484 -3 -478 46 -478 49 0 48
-7 46 480 -1 140 -5 260 -9 265 -11 15 -70 14 -76 -1z"/>
<path d="M4392 1468 c-9 -9 -12 -96 -12 -329 0 -275 2 -320 16 -333 20 -20 38
-20 58 0 14 13 16 58 16 333 0 333 -1 341 -45 341 -12 0 -26 -5 -33 -12z"/>
<path d="M4902 1438 c-6 -8 -10 -126 -11 -300 -2 -285 -2 -287 20 -298 16 -9
28 -9 46 -1 l24 11 -2 288 c-1 174 -5 292 -11 300 -6 6 -21 12 -33 12 -12 0
-27 -6 -33 -12z"/>
<path d="M5916 1434 c-19 -18 -19 -24 -6 -59 7 -17 7 -24 0 -20 -15 9 -13 -88
2 -103 7 -7 21 -12 33 -12 12 0 26 5 33 12 15 15 17 112 2 103 -7 -4 -7 3 0
20 6 15 10 30 10 35 0 13 -30 40 -45 40 -7 0 -21 -7 -29 -16z"/>
<path d="M5416 1374 c-9 -8 -16 -22 -16 -29 0 -7 7 -21 16 -29 14 -15 14 -17
0 -32 -19 -18 -20 -28 -5 -56 6 -11 7 -18 2 -15 -6 4 -11 -65 -12 -177 -1
-157 1 -186 14 -200 21 -20 39 -20 60 0 13 14 15 43 14 200 -1 112 -6 181 -12
177 -5 -3 -4 4 2 15 15 28 14 38 -5 56 -14 15 -14 17 0 32 9 8 16 22 16 29 0
18 -27 45 -45 45 -7 0 -21 -7 -29 -16z"/>
<path d="M1346 1204 c-13 -12 -16 -41 -17 -137 -2 -267 1 -311 18 -324 21 -16
35 -16 56 0 17 13 20 57 18 324 -1 124 -10 153 -46 153 -7 0 -21 -7 -29 -16z"/>
<path d="M5916 1184 c-14 -13 -16 -41 -14 -177 l3 -162 40 0 40 0 3 162 c2
136 0 164 -14 177 -20 20 -38 20 -58 0z"/>
<path d="M831 1146 c-13 -15 -18 -398 -6 -435 12 -38 68 -38 80 0 4 11 6 110
6 220 0 212 -4 229 -46 229 -12 0 -28 -6 -34 -14z"/>
<path d="M2880 1090 c-18 -11 -27 -146 -20 -298 5 -101 13 -122 45 -122 32 0
40 21 45 122 7 152 -2 287 -20 298 -8 5 -19 10 -25 10 -5 0 -17 -5 -25 -10z"/>
</g>
</svg>
