<?xml version="1.0" standalone="no"?>
<!DOCTYPE svg PUBLIC "-//W3C//DTD SVG 20010904//EN"
 "http://www.w3.org/TR/2001/REC-SVG-20010904/DTD/svg10.dtd">
<svg version="1.0" xmlns="http://www.w3.org/2000/svg"
 width="790.000000pt" height="390.000000pt" viewBox="0 0 790.000000 390.000000"
 preserveAspectRatio="xMidYMid meet">
<metadata>
Created by potrace 1.16, written by Peter Selinger 2001-2019
</metadata>
<g transform="translate(0.000000,390.000000) scale(0.100000,-0.100000)"
fill="#000000" stroke="none">
<path d="M1790 2330 c-12 -7 -15 -48 -17 -231 -2 -153 1 -226 8 -235 8 -10 8
-18 1 -27 -16 -18 -17 -571 -1 -562 8 5 8 2 1 -11 -5 -11 -10 -61 -11 -112 -1
-75 2 -94 14 -99 14 -5 14 -7 1 -22 -15 -17 -25 -158 -12 -179 16 -26 86 -16
86 13 0 8 5 15 10 15 6 0 11 -20 11 -45 3 -97 4 -106 19 -115 34 -22 64 -3 66
42 1 18 2 53 4 78 6 133 0 249 -16 264 -20 20 -38 20 -58 0 -12 -12 -16 -38
-16 -115 0 -59 -4 -99 -10 -99 -6 0 -10 28 -10 64 0 45 -4 67 -16 77 -14 11
-14 13 0 21 13 7 16 27 15 101 -1 51 -6 100 -11 111 -7 13 -7 16 1 11 16 -9
15 544 -1 562 -7 9 -7 17 1 27 7 9 10 82 8 235 -2 227 -5 241 -42 241 -5 0
-17 -5 -25 -10z"/>
<path d="M4846 2064 c-18 -17 -22 -109 -6 -119 7 -4 6 -13 -1 -26 -20 -38 11
-77 52 -64 23 8 33 39 20 64 -7 13 -8 22 -1 26 5 3 10 28 10 55 0 49 -17 80
-45 80 -7 0 -21 -7 -29 -16z"/>
<path d="M5206 2004 c-21 -21 -22 -126 -1 -144 13 -11 13 -14 0 -27 -8 -8 -15
-21 -15 -28 0 -18 27 -45 45 -45 18 0 45 27 45 45 0 7 -7 20 -15 28 -13 13
-13 16 0 27 21 18 20 123 -1 144 -8 9 -22 16 -29 16 -7 0 -21 -7 -29 -16z"/>
<path d="M2377 1835 c-12 -11 -15 -54 -16 -215 0 -140 3 -199 10 -194 8 4 8 1
0 -14 -13 -25 -14 -309 -1 -317 7 -4 7 -13 0 -25 -5 -10 -9 -64 -9 -120 0 -95
2 -102 22 -109 12 -5 31 -5 42 -1 18 7 20 18 23 109 1 56 -2 110 -8 121 -6 12
-7 21 0 25 13 8 12 292 -1 317 -8 15 -8 18 0 14 7 -5 10 54 10 194 -1 207 -6
230 -44 230 -7 0 -20 -7 -28 -15z"/>
<path d="M3662 1837 c-12 -15 -10 -166 3 -187 5 -9 4 -11 -3 -6 -9 5 -12 -14
-12 -69 0 -42 4 -74 8 -71 4 2 8 -4 8 -14 0 -10 -4 -16 -8 -14 -13 8 -9 -91 4
-104 15 -15 51 -15 66 0 13 13 17 112 4 104 -4 -2 -8 4 -8 14 0 10 4 16 8 14
4 -3 8 29 8 71 0 55 -3 74 -12 69 -7 -5 -8 -3 -3 6 13 21 15 172 3 187 -6 7
-21 13 -33 13 -12 0 -27 -6 -33 -13z"/>
<path d="M2966 1724 c-14 -13 -16 -54 -16 -294 0 -243 2 -280 16 -288 14 -8
14 -10 0 -21 -22 -18 -22 -133 -1 -151 13 -11 13 -14 -1 -27 -10 -10 -14 -30
-12 -57 3 -41 3 -41 43 -41 40 0 40 0 43 41 2 27 -2 47 -12 57 -14 13 -14 16
-1 27 21 18 21 133 -1 151 -14 11 -14 13 0 21 14 8 16 45 16 288 0 240 -2 281
-16 294 -8 9 -22 16 -29 16 -7 0 -21 -7 -29 -16z"/>
<path d="M3786 1724 c-20 -19 -20 -38 -1 -57 13 -13 13 -16 0 -27 -21 -17 -20
-104 1 -124 20 -20 38 -20 58 0 21 20 22 107 1 124 -13 11 -13 14 0 27 8 8 15
21 15 28 0 18 -27 45 -45 45 -7 0 -21 -7 -29 -16z"/>
<path d="M831 1667 c-7 -10 -11 -147 -11 -458 -1 -410 0 -444 16 -456 22 -16
36 -16 58 0 16 12 17 46 16 456 0 311 -4 448 -11 458 -6 7 -22 13 -34 13 -12
0 -28 -6 -34 -13z"/>
<path d="M2842 1638 c-12 -16 -13 -127 -1 -150 6 -10 5 -19 -1 -23 -7 -4 -9
-114 -8 -313 l3 -307 40 0 40 0 3 307 c1 199 -1 309 -8 313 -6 4 -7 13 -1 23
12 23 11 134 -1 150 -6 6 -21 12 -33 12 -12 0 -27 -6 -33 -12z"/>
<path d="M3192 1438 c-17 -17 -15 -74 4 -92 14 -15 14 -17 0 -32 -19 -18 -22
-143 -5 -176 8 -15 8 -19 0 -13 -8 5 -11 -32 -9 -137 l3 -143 40 0 40 0 3 143
c2 105 -1 142 -9 137 -8 -6 -8 -2 0 13 17 33 14 158 -5 176 -14 15 -14 17 0
32 19 18 21 75 4 92 -7 7 -21 12 -33 12 -12 0 -26 -5 -33 -12z"/>
<path d="M3432 1438 c-16 -16 -16 -112 -1 -102 8 4 8 1 1 -12 -17 -31 -14
-134 4 -141 13 -5 13 -8 -1 -23 -13 -14 -15 -42 -13 -166 l3 -149 40 0 40 0 3
149 c2 124 0 152 -13 166 -14 15 -14 18 -1 23 18 7 21 110 4 141 -7 13 -7 16
1 12 15 -10 15 86 -1 102 -7 7 -21 12 -33 12 -12 0 -26 -5 -33 -12z"/>
<path d="M4026 1434 c-9 -8 -16 -22 -16 -29 0 -7 7 -21 16 -29 13 -14 14 -18
1 -30 -21 -22 -22 -139 -1 -160 41 -42 75 -5 73 80 -1 42 -7 70 -16 80 -13 12
-12 16 1 30 9 8 16 22 16 29 0 18 -27 45 -45 45 -7 0 -21 -7 -29 -16z"/>
<path d="M4376 1435 c-12 -12 -15 -38 -15 -106 0 -84 2 -91 23 -101 17 -7 29
-7 44 1 18 10 21 21 21 101 0 91 -10 120 -44 120 -7 0 -21 -7 -29 -15z"/>
<path d="M3318 1289 c-24 -14 -25 -101 -1 -124 16 -16 16 -18 0 -27 -13 -7
-17 -23 -17 -71 0 -67 11 -87 45 -87 34 0 45 20 45 87 0 48 -4 64 -17 71 -16
9 -16 11 0 27 25 25 23 111 -2 125 -24 12 -31 12 -53 -1z"/>
<path d="M3077 1257 c-16 -11 -17 -33 -15 -212 l3 -200 40 0 40 0 3 200 c2
179 1 201 -15 212 -9 7 -22 13 -28 13 -6 0 -19 -6 -28 -13z"/>
<path d="M2251 1236 c-8 -10 -11 -70 -9 -202 l3 -189 40 0 40 0 3 189 c3 199
0 216 -43 216 -12 0 -28 -6 -34 -14z"/>
<path d="M2487 1227 c-16 -11 -17 -32 -15 -196 3 -173 4 -184 23 -191 11 -4
30 -4 43 1 22 8 22 11 22 193 0 173 -1 186 -19 196 -25 13 -33 13 -54 -3z"/>
<path d="M2721 1226 c-8 -9 -11 -70 -9 -197 l3 -184 40 0 40 0 3 184 c3 194
-1 211 -43 211 -12 0 -28 -6 -34 -14z"/>
<path d="M2017 1205 c-12 -12 -15 -53 -16 -215 l-2 -200 24 -11 c18 -8 30 -8
46 0 21 12 22 17 20 212 -1 206 -5 229 -44 229 -7 0 -20 -7 -28 -15z"/>
<path d="M2132 1198 c-8 -8 -12 -65 -12 -190 0 -178 0 -178 24 -189 17 -8 29
-8 45 0 20 11 21 18 21 189 0 187 -3 202 -45 202 -12 0 -26 -5 -33 -12z"/>
<path d="M2601 1186 c-11 -13 -13 -66 -11 -265 1 -36 3 -68 6 -73 7 -10 71
-10 78 0 3 5 5 37 6 73 3 267 1 279 -45 279 -12 0 -28 -6 -34 -14z"/>
<path d="M1076 1174 c-16 -16 -20 -80 -17 -329 1 -80 5 -102 18 -112 21 -16
35 -16 56 0 17 13 20 64 18 319 -1 109 -11 138 -46 138 -7 0 -21 -7 -29 -16z"/>
<path d="M1301 1147 c-6 -8 -11 -63 -12 -135 0 -67 -4 -122 -9 -122 -4 0 -8
48 -9 107 -1 59 -7 113 -13 120 -13 17 -52 17 -66 0 -10 -11 -15 -137 -13
-309 1 -68 4 -79 22 -89 16 -8 28 -8 45 0 22 10 24 16 24 86 0 43 4 75 10 75
6 0 10 -26 10 -58 0 -32 5 -63 12 -70 16 -16 53 -15 68 2 16 20 15 373 -1 392
-15 18 -53 18 -68 1z"/>
<path d="M1661 1147 c-16 -20 -16 -354 0 -373 6 -8 22 -14 34 -14 42 0 46 18
46 201 -1 181 -5 199 -46 199 -12 0 -28 -6 -34 -13z"/>
<path d="M1421 1126 c-8 -9 -12 -71 -12 -187 -1 -155 1 -174 17 -186 10 -7 23
-13 29 -13 6 0 19 6 29 13 16 12 18 31 17 186 0 183 -5 201 -46 201 -12 0 -28
-6 -34 -14z"/>
<path d="M1548 1120 c-17 -10 -22 -93 -18 -285 2 -86 10 -105 45 -105 12 0 27
6 33 13 11 13 15 106 12 270 -1 83 -4 99 -20 107 -23 12 -30 12 -52 0z"/>
<path d="M950 1095 c-9 -11 -12 -68 -11 -207 0 -170 3 -194 18 -205 9 -7 22
-13 28 -13 6 0 19 6 28 13 15 11 18 35 18 205 1 204 -2 222 -46 222 -12 0 -28
-7 -35 -15z"/>
</g>
</svg>
