<?xml version="1.0" standalone="no"?>
<!DOCTYPE svg PUBLIC "-//W3C//DTD SVG 20010904//EN"
 "http://www.w3.org/TR/2001/REC-SVG-20010904/DTD/svg10.dtd">
<svg version="1.0" xmlns="http://www.w3.org/2000/svg"
 width="790.000000pt" height="390.000000pt" viewBox="0 0 790.000000 390.000000"
 preserveAspectRatio="xMidYMid meet">
<metadata>
Created by potrace 1.16, written by Peter Selinger 2001-2019
</metadata>
<g transform="translate(0.000000,390.000000) scale(0.100000,-0.100000)"
fill="#000000" stroke="none">
<path d="M1492 2497 c-13 -15 -14 -345 -1 -353 5 -3 5 -13 -1 -23 -11 -21 -16
-1265 -5 -1293 13 -34 67 -33 80 0 11 28 6 1272 -5 1293 -6 10 -6 20 -1 23 13
8 12 338 -1 353 -6 7 -21 13 -33 13 -12 0 -27 -6 -33 -13z"/>
<path d="M4807 2416 c-12 -12 -14 -52 -13 -211 1 -200 4 -215 41 -215 37 0 40
15 41 215 1 202 -3 225 -41 225 -7 0 -20 -6 -28 -14z"/>
<path d="M5466 2354 c-20 -20 -20 -38 1 -59 13 -14 14 -18 3 -25 -20 -12 -22
-107 -3 -125 17 -17 32 -19 52 -6 20 13 24 107 4 126 -13 13 -13 17 1 31 9 8
16 22 16 29 0 18 -27 45 -45 45 -7 0 -21 -7 -29 -16z"/>
<path d="M6790 2191 c-20 -14 -23 -167 -3 -187 17 -16 32 -18 53 -5 20 14 23
167 3 187 -17 16 -32 18 -53 5z"/>
<path d="M5471 2071 c-17 -11 -23 -96 -10 -123 6 -10 5 -19 -1 -23 -15 -9 -12
-51 5 -65 12 -10 12 -14 1 -25 -19 -19 -22 -331 -4 -353 10 -12 10 -14 1 -8
-10 5 -13 -8 -13 -54 0 -42 3 -59 11 -54 8 5 8 1 0 -14 -12 -22 -17 -505 -6
-534 13 -34 67 -33 80 0 11 29 5 512 -6 534 -8 15 -8 19 0 14 8 -5 11 12 11
54 0 46 -3 59 -12 54 -10 -6 -10 -4 0 8 18 22 15 334 -4 353 -11 11 -11 15 1
25 17 14 20 56 5 65 -6 4 -7 13 -1 23 5 9 8 39 7 65 -2 46 -15 67 -41 67 -5 0
-16 -4 -24 -9z"/>
<path d="M6122 1838 c-15 -15 -16 -43 -1 -70 8 -15 8 -19 0 -14 -14 9 -15 -38
-1 -64 7 -13 7 -21 0 -25 -16 -10 -12 -102 6 -119 37 -38 74 -5 74 64 0 27 -5
52 -10 55 -7 4 -7 12 0 25 13 23 13 73 1 66 -5 -4 -4 8 2 24 8 22 9 35 1 48
-14 21 -55 27 -72 10z"/>
<path d="M6785 1774 c-11 -11 -14 -25 -10 -38 4 -12 6 -25 6 -31 -1 -5 -3 -34
-5 -63 -4 -54 9 -82 39 -82 30 0 43 28 39 82 -2 29 -4 58 -5 63 0 6 2 19 6 31
7 23 -16 54 -40 54 -7 0 -21 -7 -30 -16z"/>
<path d="M4142 1728 c-15 -15 -17 -204 -2 -213 8 -5 8 -11 1 -19 -12 -14 -17
-679 -6 -708 13 -34 67 -33 80 0 11 29 6 694 -6 708 -7 8 -7 14 1 19 15 9 13
198 -2 213 -7 7 -21 12 -33 12 -12 0 -26 -5 -33 -12z"/>
<path d="M4806 1724 c-18 -18 -22 -79 -5 -68 8 5 8 1 0 -14 -7 -13 -11 -143
-12 -384 -1 -476 -3 -452 30 -463 40 -12 59 10 62 70 6 163 -3 761 -12 777 -8
15 -8 19 0 14 7 -5 11 4 11 23 0 31 -22 61 -45 61 -7 0 -21 -7 -29 -16z"/>
<path d="M3476 1514 c-12 -12 -16 -37 -16 -103 0 -92 8 -111 45 -111 37 0 45
19 45 111 0 89 -11 119 -45 119 -7 0 -21 -7 -29 -16z"/>
<path d="M6127 1436 c-11 -11 -14 -70 -16 -305 l-2 -291 24 -11 c18 -8 30 -8
46 1 22 11 22 12 20 302 -2 300 -5 318 -44 318 -7 0 -20 -6 -28 -14z"/>
<path d="M6782 1438 c-9 -9 -12 -90 -12 -303 0 -306 1 -315 45 -315 44 0 45 9
45 315 0 306 -1 315 -45 315 -12 0 -26 -5 -33 -12z"/>
<path d="M3476 1254 c-13 -12 -16 -42 -17 -147 -2 -194 1 -320 7 -339 10 -33
68 -34 78 0 6 19 9 144 7 339 -1 105 -4 135 -17 147 -8 9 -22 16 -29 16 -7 0
-21 -7 -29 -16z"/>
<path d="M2156 1204 c-16 -16 -20 -98 -16 -359 1 -105 8 -125 45 -125 37 0 44
20 45 125 5 333 0 375 -45 375 -7 0 -21 -7 -29 -16z"/>
<path d="M831 1146 c-13 -15 -18 -398 -6 -435 12 -38 68 -38 80 0 4 11 6 110
6 220 0 212 -4 229 -46 229 -12 0 -28 -6 -34 -14z"/>
<path d="M2820 1090 c-18 -11 -27 -146 -20 -298 5 -101 13 -122 45 -122 32 0
40 21 45 122 7 152 -2 287 -20 298 -8 5 -19 10 -25 10 -5 0 -17 -5 -25 -10z"/>
</g>
</svg>
