<?xml version="1.0" standalone="no"?>
<!DOCTYPE svg PUBLIC "-//W3C//DTD SVG 20010904//EN"
 "http://www.w3.org/TR/2001/REC-SVG-20010904/DTD/svg10.dtd">
<svg version="1.0" xmlns="http://www.w3.org/2000/svg"
 width="1160.000000pt" height="373.000000pt" viewBox="0 0 1160.000000 373.000000"
 preserveAspectRatio="xMidYMid meet">
<metadata>
Created by potrace 1.16, written by Peter Selinger 2001-2019
</metadata>
<g transform="translate(0.000000,373.000000) scale(0.100000,-0.100000)"
fill="#000000" stroke="none">
<path d="M8420 2080 l0 -1290 160 0 160 0 0 1290 0 1290 -160 0 -160 0 0
-1290z"/>
<path d="M7110 2070 l0 -1280 160 0 160 0 0 1280 0 1280 -160 0 -160 0 0
-1280z"/>
<path d="M7770 2020 l0 -1230 160 0 160 0 0 1230 0 1230 -160 0 -160 0 0
-1230z"/>
<path d="M6450 1905 l0 -1115 160 0 160 0 0 1115 0 1115 -160 0 -160 0 0
-1115z"/>
<path d="M550 1880 l0 -1090 155 0 155 0 0 1090 0 1090 -155 0 -155 0 0 -1090z"/>
<path d="M9080 1875 l0 -1085 160 0 160 0 0 1085 0 1085 -160 0 -160 0 0
-1085z"/>
<path d="M1200 1765 l0 -975 160 0 160 0 0 975 0 975 -160 0 -160 0 0 -975z"/>
<path d="M9740 1725 l0 -935 160 0 160 0 0 935 0 935 -160 0 -160 0 0 -935z"/>
<path d="M10390 1595 l0 -805 160 0 160 0 0 805 0 805 -160 0 -160 0 0 -805z"/>
<path d="M11050 1485 l0 -695 160 0 160 0 0 695 0 695 -160 0 -160 0 0 -695z"/>
<path d="M1860 1415 l0 -625 160 0 160 0 0 625 0 625 -160 0 -160 0 0 -625z"/>
<path d="M2520 1410 l0 -620 155 0 155 0 0 620 0 620 -155 0 -155 0 0 -620z"/>
<path d="M3170 1280 l0 -490 160 0 160 0 0 490 0 490 -160 0 -160 0 0 -490z"/>
<path d="M3830 845 l0 -55 160 0 160 0 0 55 0 55 -160 0 -160 0 0 -55z"/>
<path d="M4490 845 l0 -55 155 0 155 0 0 55 0 55 -155 0 -155 0 0 -55z"/>
<path d="M5140 845 l0 -55 160 0 160 0 0 55 0 55 -160 0 -160 0 0 -55z"/>
<path d="M5800 845 l0 -55 160 0 160 0 0 55 0 55 -160 0 -160 0 0 -55z"/>
</g>
</svg>
