<?xml version="1.0" standalone="no"?>
<!DOCTYPE svg PUBLIC "-//W3C//DTD SVG 20010904//EN"
 "http://www.w3.org/TR/2001/REC-SVG-20010904/DTD/svg10.dtd">
<svg version="1.0" xmlns="http://www.w3.org/2000/svg"
 width="300.000000pt" height="206.000000pt" viewBox="0 0 300.000000 206.000000"
 preserveAspectRatio="xMidYMid meet">
<metadata>
Created by potrace 1.10, written by Peter Selinger 2001-2011
</metadata>
<g transform="translate(0.000000,206.000000) scale(0.100000,-0.100000)"
fill="#000000" stroke="none">
<path d="M290 1937 c0 -53 3 -97 8 -97 8 0 7 179 -2 188 -3 3 -6 -38 -6 -91z"/>
<path d="M540 2020 l-25 -8 28 -1 c15 -1 27 4 27 9 0 6 -1 10 -2 9 -2 -1 -14
-5 -28 -9z"/>
<path d="M865 2020 c-3 -5 -1 -10 4 -10 6 0 11 5 11 10 0 6 -2 10 -4 10 -3 0
-8 -4 -11 -10z"/>
<path d="M890 2020 c0 -6 7 -10 15 -10 8 0 15 2 15 4 0 2 -7 6 -15 10 -8 3
-15 1 -15 -4z"/>
<path d="M1155 2020 l-30 -8 33 -1 c17 0 32 4 32 9 0 6 -1 9 -2 9 -2 -1 -16
-5 -33 -9z"/>
<path d="M1200 2020 c0 -5 5 -10 11 -10 5 0 7 5 4 10 -3 6 -8 10 -11 10 -2 0
-4 -4 -4 -10z"/>
<path d="M1480 2020 c-13 -8 -12 -10 3 -10 9 0 17 5 17 10 0 12 -1 12 -20 0z"/>
<path d="M1785 2021 c-3 -5 -1 -12 5 -16 5 -3 10 1 10 9 0 18 -6 21 -15 7z"/>
<path d="M2675 2020 l-40 -7 43 -2 c23 0 42 4 42 9 0 6 -1 9 -2 9 -2 -1 -21
-5 -43 -9z"/>
<path d="M2945 2020 c-16 -7 -17 -9 -3 -9 9 -1 19 -7 21 -13 3 -7 6 -3 6 10 1
12 0 22 -1 21 -2 0 -12 -4 -23 -9z"/>
<path d="M638 2013 c7 -3 16 -2 19 1 4 3 -2 6 -13 5 -11 0 -14 -3 -6 -6z"/>
<path d="M798 2013 c7 -3 16 -2 19 1 4 3 -2 6 -13 5 -11 0 -14 -3 -6 -6z"/>
<path d="M1548 2013 c7 -3 16 -2 19 1 4 3 -2 6 -13 5 -11 0 -14 -3 -6 -6z"/>
<path d="M1618 2013 c7 -3 16 -2 19 1 4 3 -2 6 -13 5 -11 0 -14 -3 -6 -6z"/>
<path d="M1888 2013 c7 -3 16 -2 19 1 4 3 -2 6 -13 5 -11 0 -14 -3 -6 -6z"/>
<path d="M2368 2013 c7 -3 16 -2 19 1 4 3 -2 6 -13 5 -11 0 -14 -3 -6 -6z"/>
<path d="M2458 2013 c7 -3 16 -2 19 1 4 3 -2 6 -13 5 -11 0 -14 -3 -6 -6z"/>
<path d="M1811 1974 c0 -11 3 -14 6 -6 3 7 2 16 -1 19 -3 4 -6 -2 -5 -13z"/>
<path d="M1510 1944 c0 -9 5 -14 12 -12 18 6 21 28 4 28 -9 0 -16 -7 -16 -16z"/>
<path d="M1550 1944 c0 -9 5 -14 12 -12 18 6 21 28 4 28 -9 0 -16 -7 -16 -16z"/>
<path d="M1756 1933 c-11 -11 -6 -23 9 -23 8 0 15 4 15 9 0 13 -16 22 -24 14z"/>
<path d="M2708 1870 c-3 -16 -1 -30 4 -30 4 0 8 14 8 30 0 17 -2 30 -4 30 -2
0 -6 -13 -8 -30z"/>
<path d="M1106 1883 c-11 -11 -6 -23 9 -23 8 0 15 4 15 9 0 13 -16 22 -24 14z"/>
<path d="M104 1840 c0 -11 4 -20 8 -20 4 0 8 9 8 20 0 11 -4 20 -8 20 -4 0 -8
-9 -8 -20z"/>
<path d="M133 1837 c0 -12 1 -16 4 -9 3 6 11 12 19 12 21 0 17 16 -4 17 -12 1
-18 -6 -19 -20z"/>
<path d="M172 1839 c-21 -16 -20 -17 24 -17 37 -1 45 2 42 15 -4 22 -40 23
-66 2z"/>
<path d="M1810 1850 c0 -5 5 -10 11 -10 5 0 7 5 4 10 -3 6 -8 10 -11 10 -2 0
-4 -4 -4 -10z"/>
<path d="M2950 1850 c-13 -8 -12 -10 3 -10 9 0 17 5 17 10 0 12 -1 12 -20 0z"/>
<path d="M778 1843 c7 -3 16 -2 19 1 4 3 -2 6 -13 5 -11 0 -14 -3 -6 -6z"/>
<path d="M828 1843 c12 -2 30 -2 40 0 9 3 -1 5 -23 4 -22 0 -30 -2 -17 -4z"/>
<path d="M1468 1843 c6 -2 18 -2 25 0 6 3 1 5 -13 5 -14 0 -19 -2 -12 -5z"/>
<path d="M1713 1843 c9 -2 23 -2 30 0 6 3 -1 5 -18 5 -16 0 -22 -2 -12 -5z"/>
<path d="M2658 1843 c6 -2 18 -2 25 0 6 3 1 5 -13 5 -14 0 -19 -2 -12 -5z"/>
<path d="M2758 1843 c6 -2 18 -2 25 0 6 3 1 5 -13 5 -14 0 -19 -2 -12 -5z"/>
<path d="M2813 1843 c9 -2 25 -2 35 0 9 3 1 5 -18 5 -19 0 -27 -2 -17 -5z"/>
<path d="M2908 1843 c7 -3 16 -2 19 1 4 3 -2 6 -13 5 -11 0 -14 -3 -6 -6z"/>
<path d="M1390 1825 c0 -10 7 -15 18 -13 21 4 19 22 -2 26 -10 2 -16 -3 -16
-13z"/>
<path d="M1590 1825 c0 -8 7 -15 15 -15 8 0 15 7 15 15 0 8 -7 15 -15 15 -8 0
-15 -7 -15 -15z"/>
<path d="M292 1723 c1 -110 5 -97 10 35 2 39 0 72 -4 72 -5 0 -7 -48 -6 -107z"/>
<path d="M628 1823 c7 -3 16 -2 19 1 4 3 -2 6 -13 5 -11 0 -14 -3 -6 -6z"/>
<path d="M808 1823 c7 -3 16 -2 19 1 4 3 -2 6 -13 5 -11 0 -14 -3 -6 -6z"/>
<path d="M1160 1826 c0 -2 7 -6 15 -10 8 -3 15 -1 15 4 0 6 -7 10 -15 10 -8 0
-15 -2 -15 -4z"/>
<path d="M2964 1740 c0 -52 1 -74 3 -47 2 26 2 68 0 95 -2 26 -3 4 -3 -48z"/>
<path d="M1497 1803 c-7 -12 12 -55 21 -49 12 7 8 49 -5 53 -6 2 -13 0 -16 -4z"/>
<path d="M1390 1756 c0 -9 7 -16 16 -16 17 0 14 22 -4 28 -7 2 -12 -3 -12 -12z"/>
<path d="M1176 1753 c-11 -11 -6 -23 9 -23 8 0 15 4 15 9 0 13 -16 22 -24 14z"/>
<path d="M1440 1716 c0 -9 7 -16 16 -16 9 0 14 5 12 12 -6 18 -28 21 -28 4z"/>
<path d="M1546 1723 c-11 -11 -6 -23 9 -23 8 0 15 4 15 9 0 13 -16 22 -24 14z"/>
<path d="M1786 1723 c-11 -11 -6 -23 9 -23 8 0 15 4 15 9 0 13 -16 22 -24 14z"/>
<path d="M1157 1703 c-28 -3 -37 -8 -33 -19 3 -8 1 -14 -4 -14 -17 0 -11 -18
8 -23 14 -4 13 -5 -4 -6 -18 -1 -21 -7 -20 -43 l1 -43 45 4 c25 1 41 -1 37 -5
-4 -5 -22 -8 -40 -9 -18 0 -32 -5 -32 -12 0 -6 -3 -15 -7 -19 -5 -4 -8 -20 -8
-36 0 -28 -13 -37 -25 -18 -9 15 -25 12 -25 -5 0 -8 7 -15 15 -15 8 0 15 -5
15 -11 0 -5 5 -7 10 -4 6 3 10 1 10 -4 0 -6 -9 -11 -20 -11 -11 0 -20 5 -20
10 0 6 -7 10 -15 10 -8 0 -15 -3 -15 -6 0 -8 24 -30 40 -37 12 -4 11 -6 -2 -6
-11 -1 -18 -9 -18 -20 0 -11 -6 -22 -12 -24 -10 -4 -10 -7 0 -15 9 -6 10 -16
3 -34 -5 -14 -7 -28 -4 -31 3 -3 -5 -3 -17 0 -19 5 -21 3 -15 -16 4 -15 2 -21
-9 -21 -8 0 -20 -9 -26 -20 -13 -25 7 -50 39 -50 12 0 21 -5 21 -11 0 -7 -10
-9 -26 -5 -23 6 -26 4 -21 -13 3 -12 0 -19 -7 -18 -6 1 -12 -13 -14 -30 -2
-19 1 -33 7 -33 6 0 11 -14 11 -31 0 -16 -4 -28 -9 -25 -5 3 -7 15 -4 26 4 14
0 20 -10 20 -9 0 -18 -8 -20 -17 -4 -17 -5 -17 -6 0 -1 17 -12 22 -24 10 -4
-3 -2 -12 4 -19 11 -13 2 -64 -12 -64 -5 0 -9 -36 -9 -79 0 -44 -4 -83 -10
-86 -5 -3 -10 1 -10 10 0 9 -5 15 -11 13 -6 -2 -10 -7 -9 -12 1 -5 -4 -13 -12
-18 -10 -7 -8 -12 9 -27 l21 -18 -30 -17 c-27 -17 -28 -19 -14 -35 18 -20 9
-36 -11 -20 -7 6 -14 8 -15 3 0 -5 -2 -13 -3 -19 -2 -5 -3 -16 -4 -22 0 -7 -8
-13 -16 -13 -10 0 -14 -10 -13 -35 1 -39 -2 -45 -29 -49 -10 -2 -18 -10 -18
-19 0 -8 -8 -24 -18 -35 -11 -12 -14 -22 -8 -26 6 -4 4 -17 -6 -35 -15 -26
-15 -29 3 -54 21 -29 39 -34 47 -14 3 7 6 5 6 -5 1 -25 21 -23 21 2 0 11 5 20
10 20 6 0 10 -5 10 -11 0 -6 10 -8 23 -5 l22 6 -22 -11 c-13 -7 -23 -16 -23
-21 0 -16 34 -8 56 13 l23 21 -6 -21 c-6 -24 14 -30 23 -7 9 23 35 28 60 11
22 -14 28 -12 25 8 0 4 6 7 15 7 10 0 14 6 11 14 -6 15 19 30 34 20 5 -3 9 2
9 10 0 18 25 22 35 6 10 -16 23 -12 35 11 9 17 8 23 -7 35 -17 12 -16 13 10
14 16 0 26 -4 22 -10 -8 -12 12 -50 27 -50 5 0 8 9 5 20 -3 11 -1 20 4 20 5 0
7 14 5 32 -2 18 -1 41 3 51 7 18 9 18 29 -8 20 -25 21 -29 6 -40 -22 -15 -2
-30 23 -17 10 5 24 7 31 5 6 -3 12 2 12 10 0 8 -10 17 -22 20 -18 5 -19 8 -8
21 12 15 7 21 -14 17 -5 -1 -6 5 -2 14 3 9 6 22 6 27 0 6 3 8 8 4 4 -4 7 -12
7 -17 0 -5 4 -9 10 -9 5 0 11 14 13 31 2 24 -2 35 -15 43 -10 5 -20 9 -22 7
-2 -1 -7 3 -12 10 -6 10 -14 7 -33 -14 -27 -29 -36 -33 -36 -17 0 6 7 10 16
10 11 0 15 6 11 20 -4 16 0 20 18 20 20 0 23 6 29 56 3 30 4 60 1 65 -4 5 1 9
9 9 13 0 15 -10 13 -48 -2 -26 -6 -53 -10 -58 -8 -13 1 -24 20 -24 7 0 13 10
14 23 0 21 1 21 8 2 5 -11 4 -28 -1 -37 -5 -11 -5 -25 2 -37 9 -18 13 -18 37
-6 29 15 43 12 43 -11 0 -15 16 -19 24 -6 5 9 -9 36 -21 38 -50 9 -72 42 -24
37 16 -2 21 3 21 22 0 13 -5 27 -11 31 -8 5 -7 9 4 15 18 10 11 49 -8 49 -8 0
-21 -8 -31 -17 -10 -10 -20 -18 -23 -18 -3 0 -5 -5 -3 -12 2 -7 -2 -13 -8 -13
-6 0 -10 27 -9 68 0 37 3 61 6 55 6 -15 33 -17 33 -3 0 6 6 10 14 10 8 0 17 7
20 16 9 24 8 27 -12 22 -10 -3 -24 2 -31 10 -12 12 -11 13 8 7 11 -3 21 -2 21
3 0 14 -27 22 -47 16 -16 -5 -16 -4 -3 6 11 9 12 13 3 17 -7 2 -13 20 -13 39
0 20 4 33 9 29 6 -3 8 -15 6 -26 -4 -20 15 -44 53 -66 31 -19 34 -17 27 21 -5
24 -3 35 8 39 13 5 14 -6 10 -72 -5 -65 -3 -79 10 -84 20 -8 33 11 18 26 -15
15 -14 45 2 43 6 0 12 4 12 9 0 6 -6 9 -12 9 -13 -2 -13 22 0 43 4 7 7 29 7
50 -1 21 2 55 6 76 6 35 5 37 -20 37 -25 0 -27 -2 -21 -30 5 -23 3 -30 -9 -30
-9 0 -16 -5 -16 -10 0 -6 -6 -5 -14 2 -13 11 -13 14 0 24 16 12 19 34 5 34 -5
0 -11 -6 -14 -12 -4 -10 -7 -10 -18 0 -11 10 -10 12 4 12 9 0 17 7 17 15 0 8
-7 15 -15 15 -11 0 -15 12 -15 46 0 28 4 43 10 39 11 -7 40 18 40 34 0 17 -21
13 -36 -6 -12 -16 -13 -16 -14 8 0 22 4 26 27 25 14 0 28 5 31 13 3 10 -1 12
-15 9 -16 -4 -19 -1 -15 18 4 21 0 24 -26 24 -17 0 -33 -6 -35 -12 -3 -8 -6
-6 -6 5 -1 9 7 18 17 18 32 2 37 4 42 14 3 6 -18 12 -50 16 -30 3 -45 6 -34 7
14 1 24 11 28 27 4 14 11 25 17 25 11 0 39 25 39 34 0 3 -12 6 -26 6 -19 0
-25 -4 -20 -15 3 -8 1 -15 -4 -15 -6 0 -10 14 -10 30 0 22 -5 30 -17 31 -16 0
-15 1 2 8 14 6 24 2 35 -11 17 -21 55 -15 46 7 -2 7 1 12 7 11 7 0 12 4 12 9
0 6 -6 10 -13 10 -19 0 -37 35 -20 36 29 3 33 4 33 14 0 6 -6 9 -13 9 -8 -1
-11 5 -7 15 4 15 -2 17 -42 15 -91 -4 -89 -3 -74 -13 13 -8 13 -12 0 -27 -8
-10 -9 -15 -3 -11 7 4 12 -2 12 -16 1 -27 6 -44 20 -80 18 -42 15 -71 -9 -85
-15 -10 -18 -16 -10 -26 6 -8 9 -22 5 -32 -5 -15 -4 -16 4 -5 9 12 12 10 17
-12 6 -21 1 -35 -20 -63 -15 -19 -24 -42 -21 -50 3 -8 6 -18 7 -22 0 -4 6 -13
12 -21 9 -10 7 -16 -5 -25 -15 -11 -16 -22 -16 -176 -1 -30 4 -60 10 -68 8 -9
7 -19 -2 -37 -10 -18 -10 -28 -2 -38 16 -19 -6 -78 -28 -74 -9 1 -16 -7 -18
-20 -2 -17 2 -23 15 -23 17 -1 17 -1 0 -11 -9 -6 -15 -14 -12 -18 2 -5 -2 -14
-10 -21 -8 -7 -12 -16 -9 -22 3 -5 1 -15 -5 -22 -6 -7 -9 -20 -5 -29 3 -10 -2
-20 -16 -27 -17 -9 -19 -14 -10 -26 7 -7 16 -12 20 -9 4 3 7 -12 6 -33 -1 -34
-3 -38 -19 -28 -23 14 -53 -5 -50 -31 2 -16 -3 -19 -22 -16 -24 5 -37 -3 -80
-45 -15 -15 -35 -23 -56 -23 -103 0 -123 2 -136 12 -10 9 -20 9 -39 0 -34 -15
-47 -5 -39 28 4 14 8 33 9 41 4 27 29 70 42 70 7 0 18 17 25 38 7 20 18 46 26
58 7 11 10 24 6 29 -5 4 -2 5 6 0 16 -9 31 11 31 41 0 12 7 27 15 34 9 7 14
19 11 27 -3 8 3 24 14 35 16 18 20 36 20 94 0 63 2 72 20 77 11 3 20 14 20 24
0 14 7 19 23 19 18 -1 22 5 23 29 1 17 -3 36 -9 43 -13 17 7 54 36 67 17 8 23
20 24 49 2 41 16 58 40 49 7 -3 13 0 13 7 0 6 -4 9 -9 6 -4 -3 -16 3 -26 14
-16 17 -16 24 -5 44 7 13 10 28 6 34 -3 5 2 9 12 9 43 0 45 2 27 29 -15 24
-15 27 -1 43 9 10 14 25 11 34 -4 8 -2 18 4 21 6 4 8 13 5 21 -10 24 6 38 21
18 11 -14 17 -16 32 -7 15 10 17 22 15 77 -2 38 1 68 7 72 6 3 11 18 11 33 1
26 1 26 15 8 8 -10 13 -22 10 -25 -4 -7 62 -7 69 0 2 2 7 14 10 27 7 20 4 22
-27 22 -19 0 -47 2 -63 4 -16 2 -46 1 -67 -1z m33 -44 c0 -9 -6 -19 -14 -22
-9 -4 -13 2 -12 17 1 26 26 31 26 5z m94 12 c3 -5 -5 -8 -19 -7 -14 0 -25 4
-25 9 0 10 38 9 44 -2z m-136 -71 c-2 -30 -12 -38 -23 -20 -8 13 4 50 16 50 5
0 8 -13 7 -30z m27 10 c3 -5 1 -10 -4 -10 -6 0 -11 5 -11 10 0 6 2 10 4 10 3
0 8 -4 11 -10z m130 2 c5 -1 2 -9 -6 -17 -18 -18 -59 -28 -59 -14 0 5 6 9 13
10 10 0 10 2 0 6 -35 13 -1 23 52 15z m-125 -26 c0 -3 -4 -8 -10 -11 -5 -3
-10 -1 -10 4 0 6 5 11 10 11 6 0 10 -2 10 -4z m118 -28 c-5 -14 -58 -19 -58
-7 0 7 15 11 53 18 5 0 7 -5 5 -11z m-119 -55 c-10 -11 -14 -11 -20 -1 -10 17
-2 28 17 21 11 -4 12 -8 3 -20z m-79 -153 c0 -5 -4 -10 -10 -10 -5 0 -10 5
-10 10 0 6 5 10 10 10 6 0 10 -4 10 -10z m220 -45 c0 -8 -4 -15 -10 -15 -5 0
-10 7 -10 15 0 8 5 15 10 15 6 0 10 -7 10 -15z m-35 -63 c0 -67 0 -68 -25 -63
-18 4 -20 6 -7 9 18 4 25 52 7 52 -5 0 -10 -4 -10 -10 0 -5 -8 -10 -17 -10
-14 0 -13 3 5 16 14 9 21 22 18 31 -3 8 -2 12 3 9 5 -3 11 3 14 14 9 35 12 22
12 -48z m-244 -15 c-1 -12 -15 -9 -19 4 -3 6 1 10 8 8 6 -3 11 -8 11 -12z m-7
-42 c-3 -7 -14 -11 -25 -8 -23 6 -18 18 10 20 13 1 18 -3 15 -12z m256 -35 c0
-5 -5 -10 -12 -10 -6 0 -22 -10 -35 -22 -20 -18 -23 -19 -23 -5 0 9 7 17 15
17 8 0 15 4 15 9 0 5 8 12 18 14 9 3 18 5 20 6 1 0 2 -3 2 -9z m-8 -42 c-7 -7
-12 -8 -12 -2 0 14 12 26 19 19 2 -3 -1 -11 -7 -17z m-19 -21 c7 -7 17 -22 24
-34 10 -17 9 -22 -2 -27 -9 -3 -16 5 -20 25 -13 56 -22 28 -18 -56 2 -47 -1
-85 -6 -85 -9 0 -23 101 -17 122 2 7 7 25 10 41 7 30 12 33 29 14z m55 -32
c-3 -3 -9 2 -12 12 -6 14 -5 15 5 6 7 -7 10 -15 7 -18z m73 -46 c-9 -23 -12
-23 -15 4 -2 11 15 29 21 23 2 -2 -1 -14 -6 -27z m-45 -9 c8 0 14 -7 14 -15 0
-8 -4 -15 -9 -15 -5 0 -16 -3 -24 -6 -10 -3 -16 3 -19 21 -4 20 -2 25 9 21 8
-3 21 -6 29 -6z m-409 -52 c-3 -7 -5 -2 -5 12 0 14 2 19 5 13 2 -7 2 -19 0
-25z m338 -69 c12 -19 -5 -23 -22 -6 -16 16 -16 17 -1 17 9 0 20 -5 23 -11z
m-28 -55 c1 -20 0 -22 -4 -6 -2 12 -9 22 -14 22 -5 0 -9 5 -9 11 0 25 25 0 27
-27z m-47 -88 c0 -3 -4 -8 -10 -11 -5 -3 -10 -1 -10 4 0 6 5 11 10 11 6 0 10
-2 10 -4z m130 -41 c9 -10 9 -15 1 -15 -6 0 -11 6 -12 13 0 6 -4 3 -9 -8 -8
-19 -9 -19 -9 3 -1 25 11 29 29 7z m-80 -99 c0 -3 -4 -8 -10 -11 -5 -3 -10 -1
-10 4 0 6 5 11 10 11 6 0 10 -2 10 -4z m-80 -36 c0 -15 -7 -20 -26 -20 l-26 0
23 20 c30 24 29 24 29 0z m40 0 c0 -5 -4 -10 -9 -10 -6 0 -13 5 -16 10 -3 6 1
10 9 10 9 0 16 -4 16 -10z"/>
<path d="M1070 1685 c0 -9 5 -15 11 -13 6 2 11 8 11 13 0 5 -5 11 -11 13 -6 2
-11 -4 -11 -13z"/>
<path d="M1680 1685 c0 -8 7 -15 15 -15 8 0 15 7 15 15 0 8 -7 15 -15 15 -8 0
-15 -7 -15 -15z"/>
<path d="M1495 1661 c-3 -5 -1 -12 5 -16 12 -7 30 2 30 16 0 12 -27 12 -35 0z"/>
<path d="M1440 1626 c0 -9 7 -16 16 -16 9 0 14 5 12 12 -6 18 -28 21 -28 4z"/>
<path d="M1542 1628 c6 -18 28 -21 28 -4 0 9 -7 16 -16 16 -9 0 -14 -5 -12
-12z"/>
<path d="M2950 1630 c-13 -8 -12 -10 3 -10 9 0 17 5 17 10 0 12 -1 12 -20 0z"/>
<path d="M104 1610 c0 -17 6 -19 66 -16 47 3 66 7 68 18 2 11 -7 14 -35 14
-21 -1 -43 -5 -50 -9 -6 -4 -13 -4 -16 0 -2 5 -2 2 -1 -4 2 -7 -1 -13 -6 -13
-6 0 -10 7 -10 15 0 8 -4 15 -8 15 -4 0 -8 -9 -8 -20z"/>
<path d="M2198 1623 c7 -3 16 -2 19 1 4 3 -2 6 -13 5 -11 0 -14 -3 -6 -6z"/>
<path d="M292 1498 c1 -116 5 -102 10 35 2 42 0 77 -4 77 -5 0 -7 -51 -6 -112z"/>
<path d="M1060 1595 c0 -8 7 -15 15 -15 8 0 15 7 15 15 0 8 -7 15 -15 15 -8 0
-15 -7 -15 -15z"/>
<path d="M1495 1601 c-7 -12 12 -24 25 -16 6 3 7 -1 4 -9 -4 -10 -1 -16 9 -16
9 0 15 10 15 25 0 19 -6 25 -24 25 -12 0 -25 -4 -29 -9z"/>
<path d="M1595 1601 c-7 -12 12 -24 25 -16 11 7 4 25 -10 25 -5 0 -11 -4 -15
-9z"/>
<path d="M1791 1594 c0 -11 3 -14 6 -6 3 7 2 16 -1 19 -3 4 -6 -2 -5 -13z"/>
<path d="M2963 1540 c0 -41 2 -58 4 -37 2 20 2 54 0 75 -2 20 -4 3 -4 -38z"/>
<path d="M900 1535 c0 -9 5 -15 11 -13 6 2 11 8 11 13 0 5 -5 11 -11 13 -6 2
-11 -4 -11 -13z"/>
<path d="M1430 1534 c0 -9 5 -14 12 -12 18 6 21 28 4 28 -9 0 -16 -7 -16 -16z"/>
<path d="M1485 1540 c-7 -12 5 -18 38 -18 15 0 27 6 27 13 0 14 -57 18 -65 5z"/>
<path d="M1650 1535 c0 -8 7 -15 15 -15 8 0 15 7 15 15 0 8 -7 15 -15 15 -8 0
-15 -7 -15 -15z"/>
<path d="M1070 1505 c0 -8 5 -15 10 -15 6 0 10 7 10 15 0 8 -4 15 -10 15 -5 0
-10 -7 -10 -15z"/>
<path d="M1456 1513 c-11 -11 -6 -23 9 -23 8 0 15 4 15 9 0 13 -16 22 -24 14z"/>
<path d="M1500 1500 c0 -5 11 -10 25 -10 14 0 25 5 25 10 0 6 -11 10 -25 10
-14 0 -25 -4 -25 -10z"/>
<path d="M1470 1466 c0 -10 9 -14 25 -13 33 3 33 21 0 25 -17 2 -25 -1 -25
-12z"/>
<path d="M1166 1458 c3 -5 10 -6 15 -3 13 9 11 12 -6 12 -8 0 -12 -4 -9 -9z"/>
<path d="M1317 1443 c-12 -11 -8 -23 8 -23 8 0 15 7 15 15 0 16 -12 20 -23 8z"/>
<path d="M1355 1440 c-8 -12 17 -23 41 -18 10 1 19 9 22 16 5 15 -54 17 -63 2z"/>
<path d="M985 1430 c-4 -6 -3 -16 3 -22 6 -6 12 -6 17 2 4 6 3 16 -3 22 -6 6
-12 6 -17 -2z"/>
<path d="M104 1390 c0 -14 7 -20 24 -20 13 0 20 4 17 10 -3 6 1 10 10 10 9 0
14 -4 10 -9 -9 -16 45 -7 56 9 9 13 10 12 5 -2 -3 -10 -1 -18 5 -18 6 0 9 8 7
17 -3 19 -35 24 -55 9 -8 -5 -13 -5 -13 1 0 5 -9 9 -19 9 -11 0 -18 -4 -15 -7
2 -4 0 -10 -6 -14 -5 -3 -10 1 -10 9 0 9 -4 16 -8 16 -4 0 -8 -9 -8 -20z"/>
<path d="M1280 1400 c0 -5 7 -10 15 -10 8 0 15 5 15 10 0 6 -7 10 -15 10 -8 0
-15 -4 -15 -10z"/>
<path d="M1450 1400 c0 -5 7 -10 15 -10 8 0 18 0 22 -1 4 0 9 4 11 10 2 6 -8
11 -22 11 -14 0 -26 -4 -26 -10z"/>
<path d="M1622 1399 c2 -6 8 -10 13 -10 5 0 11 4 13 10 2 6 -4 11 -13 11 -9 0
-15 -5 -13 -11z"/>
<path d="M2898 1393 c7 -3 16 -2 19 1 4 3 -2 6 -13 5 -11 0 -14 -3 -6 -6z"/>
<path d="M290 1273 c0 -58 3 -104 6 -100 3 3 5 47 5 98 -1 64 3 95 11 101 9 5
8 8 -4 8 -16 0 -18 -12 -18 -107z"/>
<path d="M848 1373 c6 -2 18 -2 25 0 6 3 1 5 -13 5 -14 0 -19 -2 -12 -5z"/>
<path d="M997 1374 c-8 -8 1 -24 14 -24 5 0 9 7 9 15 0 15 -12 20 -23 9z"/>
<path d="M1355 1371 c-7 -12 12 -24 25 -16 11 7 4 25 -10 25 -5 0 -11 -4 -15
-9z"/>
<path d="M1442 1360 c-6 -11 -12 -22 -12 -25 0 -10 22 -5 36 9 8 8 14 19 14
25 0 18 -24 12 -38 -9z"/>
<path d="M1532 1368 c6 -18 28 -21 28 -4 0 9 -7 16 -16 16 -9 0 -14 -5 -12
-12z"/>
<path d="M1590 1365 c0 -8 7 -15 15 -15 8 0 15 7 15 15 0 8 -7 15 -15 15 -8 0
-15 -7 -15 -15z"/>
<path d="M2696 1372 c7 -4 14 -16 17 -27 4 -15 5 -14 6 8 1 20 -4 27 -16 27
-12 0 -14 -3 -7 -8z"/>
<path d="M2962 1360 c0 -14 2 -19 5 -12 2 6 2 18 0 25 -3 6 -5 1 -5 -13z"/>
<path d="M561 1344 c0 -11 3 -14 6 -6 3 7 2 16 -1 19 -3 4 -6 -2 -5 -13z"/>
<path d="M1495 1330 c-3 -5 -1 -10 4 -10 6 0 11 -7 11 -15 0 -17 16 -20 25 -5
7 11 -12 40 -26 40 -4 0 -11 -4 -14 -10z"/>
<path d="M2961 1314 c0 -11 3 -14 6 -6 3 7 2 16 -1 19 -3 4 -6 -2 -5 -13z"/>
<path d="M1430 1310 c0 -5 7 -10 15 -10 8 0 15 5 15 10 0 6 -7 10 -15 10 -8 0
-15 -4 -15 -10z"/>
<path d="M1002 1289 c2 -6 8 -10 13 -10 5 0 11 4 13 10 2 6 -4 11 -13 11 -9 0
-15 -5 -13 -11z"/>
<path d="M1470 1284 c0 -17 22 -14 28 4 2 7 -3 12 -12 12 -9 0 -16 -7 -16 -16z"/>
<path d="M945 1280 c-4 -6 -3 -16 3 -22 6 -6 12 -6 17 2 4 6 3 16 -3 22 -6 6
-12 6 -17 -2z"/>
<path d="M1430 1277 c0 -8 -7 -17 -15 -21 -9 -3 -15 0 -15 9 0 8 -7 15 -15 15
-8 0 -15 -6 -15 -12 0 -20 17 -41 27 -35 5 3 15 2 22 -3 10 -6 8 -9 -8 -15
-22 -7 -27 -20 -12 -30 5 -3 16 2 24 10 9 8 20 15 26 15 6 0 11 7 11 15 0 8
-7 15 -15 15 -8 0 -15 5 -15 10 0 6 7 10 16 10 9 0 14 5 12 12 -6 18 -28 22
-28 5z"/>
<path d="M1590 1265 c0 -8 7 -15 15 -15 8 0 15 7 15 15 0 8 -7 15 -15 15 -8 0
-15 -7 -15 -15z"/>
<path d="M2732 1250 c0 -14 2 -19 5 -12 2 6 2 18 0 25 -3 6 -5 1 -5 -13z"/>
<path d="M1470 1243 c0 -9 6 -13 15 -9 8 3 21 -2 30 -10 8 -8 20 -12 26 -9 15
10 -20 40 -48 42 -15 1 -23 -4 -23 -14z"/>
<path d="M1652 1248 c6 -18 28 -21 28 -4 0 9 -7 16 -16 16 -9 0 -14 -5 -12
-12z"/>
<path d="M2962 1220 c0 -14 2 -19 5 -12 2 6 2 18 0 25 -3 6 -5 1 -5 -13z"/>
<path d="M1812 1195 c0 -16 2 -22 5 -12 2 9 2 23 0 30 -3 6 -5 -1 -5 -18z"/>
<path d="M2710 1201 c0 -11 -8 -22 -17 -24 -14 -4 -12 -5 5 -6 17 -1 22 4 22
24 0 14 -2 25 -5 25 -3 0 -5 -9 -5 -19z"/>
<path d="M1500 1187 c0 -10 -7 -13 -20 -10 -14 4 -20 0 -20 -11 0 -9 -7 -16
-15 -16 -17 0 -20 -16 -6 -25 6 -3 13 0 18 7 4 7 20 20 35 28 28 16 37 32 19
38 -6 2 -11 -3 -11 -11z"/>
<path d="M2120 1180 c0 -5 5 -10 11 -10 5 0 7 5 4 10 -3 6 -8 10 -11 10 -2 0
-4 -4 -4 -10z"/>
<path d="M2940 1180 l-25 -8 28 -1 c15 -1 27 4 27 9 0 6 -1 10 -2 9 -2 -1 -14
-5 -28 -9z"/>
<path d="M104 1159 c0 -24 5 -24 23 -1 11 12 13 13 10 2 -4 -12 6 -15 47 -14
40 0 52 4 54 17 3 12 -3 17 -22 17 -20 0 -24 -4 -20 -17 5 -17 5 -17 -6 0 -6
9 -15 17 -20 17 -5 0 -7 -8 -4 -17 5 -15 4 -16 -5 -3 -16 23 -57 23 -57 -1z"/>
<path d="M808 1173 c7 -3 16 -2 19 1 4 3 -2 6 -13 5 -11 0 -14 -3 -6 -6z"/>
<path d="M1380 1155 c0 -13 6 -25 14 -28 20 -8 28 4 14 20 -8 11 -7 12 6 7 10
-4 16 -1 16 9 0 9 -10 15 -25 15 -19 0 -25 -6 -25 -23z"/>
<path d="M1590 1165 c0 -8 7 -15 15 -15 8 0 15 7 15 15 0 8 -7 15 -15 15 -8 0
-15 -7 -15 -15z"/>
<path d="M2298 1173 c6 -2 18 -2 25 0 6 3 1 5 -13 5 -14 0 -19 -2 -12 -5z"/>
<path d="M2528 1173 c7 -3 16 -2 19 1 4 3 -2 6 -13 5 -11 0 -14 -3 -6 -6z"/>
<path d="M2618 1173 c12 -2 30 -2 40 0 9 3 -1 5 -23 4 -22 0 -30 -2 -17 -4z"/>
<path d="M2818 1173 c7 -3 16 -2 19 1 4 3 -2 6 -13 5 -11 0 -14 -3 -6 -6z"/>
<path d="M1846 1163 c-11 -11 -6 -23 9 -23 8 0 15 4 15 9 0 13 -16 22 -24 14z"/>
<path d="M294 1050 c0 -63 1 -89 3 -57 2 31 2 83 0 115 -2 31 -3 5 -3 -58z"/>
<path d="M1675 1150 c-7 -12 2 -30 16 -30 12 0 12 27 0 35 -5 3 -12 1 -16 -5z"/>
<path d="M2088 1153 c7 -3 16 -2 19 1 4 3 -2 6 -13 5 -11 0 -14 -3 -6 -6z"/>
<path d="M2964 1050 c0 -63 1 -89 3 -57 2 31 2 83 0 115 -2 31 -3 5 -3 -58z"/>
<path d="M41 1118 c1 -18 -1 -43 -5 -54 -5 -17 -2 -23 14 -27 11 -3 20 -1 20
4 0 5 -6 9 -12 9 -9 0 -8 4 2 10 13 9 13 10 0 10 -9 0 -11 3 -5 8 6 4 12 22
13 40 3 24 0 32 -13 32 -11 0 -15 -8 -14 -32z"/>
<path d="M860 1115 c0 -9 5 -15 11 -13 6 2 11 8 11 13 0 5 -5 11 -11 13 -6 2
-11 -4 -11 -13z"/>
<path d="M900 1106 c0 -16 6 -26 15 -26 10 0 14 8 12 22 -5 32 -27 35 -27 4z"/>
<path d="M2122 1070 c0 -14 2 -19 5 -12 2 6 2 18 0 25 -3 6 -5 1 -5 -13z"/>
<path d="M1454 1065 c3 -9 0 -15 -9 -15 -9 0 -15 -10 -15 -25 0 -21 5 -25 30
-25 37 0 50 25 24 45 -18 13 -18 14 -1 15 28 0 19 20 -9 20 -19 0 -25 -4 -20
-15z"/>
<path d="M1635 1071 c-3 -5 -1 -12 5 -16 12 -7 30 2 30 16 0 12 -27 12 -35 0z"/>
<path d="M1520 1015 c0 -8 7 -15 15 -15 8 0 15 7 15 15 0 8 -7 15 -15 15 -8 0
-15 -7 -15 -15z"/>
<path d="M1650 1015 c0 -8 7 -15 15 -15 8 0 15 7 15 15 0 8 -7 15 -15 15 -8 0
-15 -7 -15 -15z"/>
<path d="M1805 991 c-7 -12 12 -24 25 -16 11 7 4 25 -10 25 -5 0 -11 -4 -15
-9z"/>
<path d="M852 958 c6 -18 28 -21 28 -4 0 9 -7 16 -16 16 -9 0 -14 -5 -12 -12z"/>
<path d="M1495 961 c-7 -12 12 -24 25 -16 11 7 4 25 -10 25 -5 0 -11 -4 -15
-9z"/>
<path d="M148 947 c12 -7 19 -16 16 -20 -4 -4 -2 -7 4 -7 6 0 10 9 9 20 -1 14
-8 20 -27 20 l-25 -1 23 -12z"/>
<path d="M190 940 c0 -19 11 -26 23 -14 8 8 -3 34 -14 34 -5 0 -9 -9 -9 -20z"/>
<path d="M223 940 c1 -11 5 -20 9 -20 4 0 8 9 8 20 0 11 -4 20 -9 20 -6 0 -9
-9 -8 -20z"/>
<path d="M1570 945 c0 -8 7 -15 15 -15 8 0 15 7 15 15 0 8 -7 15 -15 15 -8 0
-15 -7 -15 -15z"/>
<path d="M2128 948 c5 -5 16 -8 23 -6 8 3 3 7 -10 11 -17 4 -21 3 -13 -5z"/>
<path d="M294 825 c0 -60 1 -84 3 -52 2 32 2 81 0 110 -2 29 -3 3 -3 -58z"/>
<path d="M2958 863 c5 -119 9 -131 10 -30 1 53 -1 97 -5 97 -5 0 -7 -30 -5
-67z"/>
<path d="M1820 885 c0 -9 5 -15 11 -13 6 2 11 8 11 13 0 5 -5 11 -11 13 -6 2
-11 -4 -11 -13z"/>
<path d="M849 878 c-8 -30 -5 -58 6 -58 16 0 26 25 19 45 -5 12 -22 21 -25 13z"/>
<path d="M1495 870 c-7 -11 35 -31 48 -23 4 2 7 11 7 19 0 16 -45 20 -55 4z"/>
<path d="M1770 855 c0 -8 7 -15 15 -15 8 0 15 7 15 15 0 8 -7 15 -15 15 -8 0
-15 -7 -15 -15z"/>
<path d="M1464 811 c-5 -32 -11 -40 -31 -43 -13 -2 -25 -7 -26 -13 -3 -15 41
-18 56 -3 16 17 38 79 31 89 -12 20 -24 7 -30 -30z"/>
<path d="M1337 834 c-8 -8 1 -24 14 -24 5 0 9 7 9 15 0 15 -12 20 -23 9z"/>
<path d="M1527 824 c-8 -8 1 -24 14 -24 5 0 9 7 9 15 0 15 -12 20 -23 9z"/>
<path d="M1570 815 c0 -9 5 -15 11 -13 6 2 11 8 11 13 0 5 -5 11 -11 13 -6 2
-11 -4 -11 -13z"/>
<path d="M1283 794 c-3 -7 -2 -17 1 -23 7 -11 57 10 53 23 -5 15 -48 14 -54 0z"/>
<path d="M1515 781 c-7 -12 12 -24 25 -16 11 7 4 25 -10 25 -5 0 -11 -4 -15
-9z"/>
<path d="M1752 758 c6 -18 28 -21 28 -4 0 9 -7 16 -16 16 -9 0 -14 -5 -12 -12z"/>
<path d="M1700 736 c0 -9 7 -16 16 -16 9 0 14 5 12 12 -6 18 -28 21 -28 4z"/>
<path d="M130 720 c0 -5 5 -10 10 -10 6 0 10 5 10 10 0 6 -4 10 -10 10 -5 0
-10 -4 -10 -10z"/>
<path d="M149 710 c-16 -17 -15 -18 6 -16 16 1 23 7 22 19 -2 21 -7 21 -28 -3z"/>
<path d="M186 722 c-2 -4 0 -14 5 -22 8 -13 10 -13 18 0 10 15 6 30 -9 30 -5
0 -11 -4 -14 -8z"/>
<path d="M223 710 c-1 -11 2 -20 8 -20 5 0 9 9 9 20 0 11 -4 20 -8 20 -4 0 -8
-9 -9 -20z"/>
<path d="M1410 715 c0 -8 5 -15 10 -15 6 0 10 7 10 15 0 8 -4 15 -10 15 -5 0
-10 -7 -10 -15z"/>
<path d="M294 600 c0 -63 1 -89 3 -57 2 31 2 83 0 115 -2 31 -3 5 -3 -58z"/>
<path d="M1730 695 c0 -9 5 -15 11 -13 6 2 11 8 11 13 0 5 -5 11 -11 13 -6 2
-11 -4 -11 -13z"/>
<path d="M1380 665 c0 -19 5 -35 10 -35 6 0 10 7 10 15 0 9 6 12 15 9 10 -4
15 0 15 11 0 11 -5 15 -15 11 -9 -3 -15 0 -15 9 0 8 -4 15 -10 15 -5 0 -10
-16 -10 -35z"/>
<path d="M2964 595 c0 -60 1 -84 3 -52 2 32 2 81 0 110 -2 29 -3 3 -3 -58z"/>
<path d="M1450 675 c0 -8 7 -15 15 -15 8 0 15 7 15 15 0 8 -7 15 -15 15 -8 0
-15 -7 -15 -15z"/>
<path d="M1525 680 c-4 -6 -3 -16 3 -22 6 -6 12 -6 17 2 4 6 3 16 -3 22 -6 6
-12 6 -17 -2z"/>
<path d="M1665 650 c-4 -6 -3 -16 3 -22 6 -6 12 -6 17 2 4 6 3 16 -3 22 -6 6
-12 6 -17 -2z"/>
<path d="M2345 641 c-7 -12 12 -24 25 -16 11 7 4 25 -10 25 -5 0 -11 -4 -15
-9z"/>
<path d="M2252 629 c2 -6 8 -10 13 -10 5 0 11 4 13 10 2 6 -4 11 -13 11 -9 0
-15 -5 -13 -11z"/>
<path d="M1410 620 c0 -5 5 -10 10 -10 6 0 10 5 10 10 0 6 -4 10 -10 10 -5 0
-10 -4 -10 -10z"/>
<path d="M1605 620 c-7 -11 18 -40 34 -40 14 0 13 11 -3 33 -15 20 -22 21 -31
7z"/>
<path d="M1314 576 c-3 -9 -12 -16 -20 -16 -20 0 -17 -12 9 -37 22 -20 24 -21
46 -4 18 14 21 20 10 26 -7 5 -14 4 -17 -3 -5 -17 -32 -15 -32 3 0 8 7 15 15
15 17 0 20 16 5 25 -6 3 -13 -1 -16 -9z"/>
<path d="M1702 579 c2 -6 8 -10 13 -10 5 0 11 4 13 10 2 6 -4 11 -13 11 -9 0
-15 -5 -13 -11z"/>
<path d="M1492 538 c6 -18 28 -21 28 -4 0 9 -7 16 -16 16 -9 0 -14 -5 -12 -12z"/>
<path d="M2731 534 c0 -11 3 -14 6 -6 3 7 2 16 -1 19 -3 4 -6 -2 -5 -13z"/>
<path d="M1767 534 c-8 -8 1 -24 14 -24 5 0 9 7 9 15 0 15 -12 20 -23 9z"/>
<path d="M154 488 c14 -23 25 -23 23 1 -1 12 -8 19 -18 18 -13 -1 -14 -5 -5
-19z"/>
<path d="M223 490 c1 -11 5 -20 9 -20 11 0 10 28 -1 35 -6 3 -9 -4 -8 -15z"/>
<path d="M1176 503 c-11 -11 -6 -23 9 -23 8 0 15 4 15 9 0 13 -16 22 -24 14z"/>
<path d="M2840 496 c0 -9 7 -16 16 -16 17 0 14 22 -4 28 -7 2 -12 -3 -12 -12z"/>
<path d="M190 485 c0 -9 5 -15 11 -13 6 2 11 8 11 13 0 5 -5 11 -11 13 -6 2
-11 -4 -11 -13z"/>
<path d="M1380 486 c0 -9 7 -16 16 -16 17 0 14 22 -4 28 -7 2 -12 -3 -12 -12z"/>
<path d="M135 480 c-3 -5 -1 -10 4 -10 6 0 11 5 11 10 0 6 -2 10 -4 10 -3 0
-8 -4 -11 -10z"/>
<path d="M292 373 c1 -110 5 -97 10 35 2 39 0 72 -4 72 -5 0 -7 -48 -6 -107z"/>
<path d="M2705 470 c3 -5 8 -10 11 -10 2 0 4 5 4 10 0 6 -5 10 -11 10 -5 0 -7
-4 -4 -10z"/>
<path d="M2964 375 c0 -60 1 -84 3 -52 2 32 2 81 0 110 -2 29 -3 3 -3 -58z"/>
<path d="M580 444 c0 -10 5 -14 15 -10 11 4 15 0 13 -12 -2 -9 3 -16 10 -14 7
1 12 -8 12 -23 0 -16 6 -25 16 -25 24 0 15 72 -10 76 -10 1 -23 7 -29 13 -16
16 -27 13 -27 -5z"/>
<path d="M1315 440 c-4 -6 -3 -16 3 -22 6 -6 12 -6 17 2 4 6 3 16 -3 22 -6 6
-12 6 -17 -2z"/>
<path d="M1422 436 c1 -10 8 -17 13 -17 15 1 12 24 -3 29 -9 3 -13 -2 -10 -12z"/>
<path d="M1183 423 c-13 -5 -19 -33 -7 -33 3 0 14 5 25 10 34 19 19 38 -18 23z"/>
<path d="M1247 404 c-8 -8 1 -24 14 -24 5 0 9 7 9 15 0 15 -12 20 -23 9z"/>
<path d="M1197 383 c-13 -12 -7 -33 8 -33 8 0 15 9 15 20 0 20 -11 26 -23 13z"/>
<path d="M580 365 c0 -9 5 -15 11 -13 6 2 11 8 11 13 0 5 -5 11 -11 13 -6 2
-11 -4 -11 -13z"/>
<path d="M1005 351 c-7 -12 12 -24 25 -16 11 7 4 25 -10 25 -5 0 -11 -4 -15
-9z"/>
<path d="M2842 349 c2 -6 8 -10 13 -10 5 0 11 4 13 10 2 6 -4 11 -13 11 -9 0
-15 -5 -13 -11z"/>
<path d="M1004 296 c-4 -10 -2 -22 4 -28 8 -8 13 -7 18 6 4 10 2 22 -4 28 -8
8 -13 7 -18 -6z"/>
<path d="M904 285 c-21 -15 -19 -19 14 -29 18 -6 22 -3 22 13 0 27 -13 33 -36
16z"/>
<path d="M392 279 c2 -6 8 -10 13 -10 5 0 11 4 13 10 2 6 -4 11 -13 11 -9 0
-15 -5 -13 -11z"/>
<path d="M851 276 c-8 -10 -9 -16 -1 -21 13 -8 30 3 30 21 0 18 -14 18 -29 0z"/>
<path d="M962 279 c2 -6 8 -10 13 -10 5 0 11 4 13 10 2 6 -4 11 -13 11 -9 0
-15 -5 -13 -11z"/>
<path d="M1122 279 c2 -6 8 -10 13 -10 5 0 11 4 13 10 2 6 -4 11 -13 11 -9 0
-15 -5 -13 -11z"/>
<path d="M222 264 c4 -21 22 -23 26 -1 2 10 -3 17 -13 17 -10 0 -15 -6 -13
-16z"/>
<path d="M1036 273 c-11 -11 -6 -23 9 -23 8 0 15 4 15 9 0 13 -16 22 -24 14z"/>
<path d="M291 223 l-1 -42 140 0 c77 0 140 3 140 7 0 4 -60 7 -133 7 l-132 0
-6 35 -6 35 -2 -42z"/>
<path d="M1511 244 c0 -11 3 -14 6 -6 3 7 2 16 -1 19 -3 4 -6 -2 -5 -13z"/>
<path d="M1811 244 c0 -11 3 -14 6 -6 3 7 2 16 -1 19 -3 4 -6 -2 -5 -13z"/>
<path d="M2711 244 c0 -11 3 -14 6 -6 3 7 2 16 -1 19 -3 4 -6 -2 -5 -13z"/>
<path d="M2956 245 c4 -8 8 -15 10 -15 2 0 4 7 4 15 0 8 -4 15 -10 15 -5 0 -7
-7 -4 -15z"/>
<path d="M1790 206 c0 -8 -12 -17 -27 -19 -26 -4 -26 -4 5 -6 26 -1 32 3 32
19 0 11 -2 20 -5 20 -3 0 -5 -6 -5 -14z"/>
<path d="M2957 206 c-4 -10 -31 -13 -116 -12 -61 0 -111 -2 -111 -6 0 -5 54
-8 120 -8 113 0 120 1 120 20 0 23 -6 26 -13 6z"/>
<path d="M1200 198 c0 -14 8 -18 33 -17 27 2 28 2 7 6 -14 3 -28 10 -32 17 -5
7 -8 5 -8 -6z"/>
<path d="M2120 196 c0 -14 18 -16 151 -16 82 0 148 3 146 8 -3 4 -65 6 -139 6
-75 -1 -138 3 -145 8 -9 8 -13 6 -13 -6z"/>
<path d="M598 189 c-12 -3 35 -7 106 -8 72 -1 127 1 124 5 -9 8 -200 11 -230
3z"/>
<path d="M844 188 c-3 -4 4 -8 15 -8 12 0 21 4 21 8 0 5 -7 9 -15 9 -9 0 -18
-4 -21 -9z"/>
<path d="M890 188 c0 -5 19 -8 42 -8 23 0 39 3 35 6 -9 9 -77 11 -77 2z"/>
<path d="M984 189 c-2 -3 29 -7 69 -8 39 -1 68 1 65 5 -9 8 -129 11 -134 3z"/>
<path d="M1165 190 c-19 -8 -19 -9 3 -9 12 -1 22 4 22 9 0 6 -1 10 -2 9 -2 0
-12 -4 -23 -9z"/>
<path d="M1400 189 c-27 -5 -19 -7 33 -8 37 0 67 3 67 7 0 9 -51 10 -100 1z"/>
<path d="M1510 188 c0 -5 50 -8 112 -8 61 0 109 2 106 5 -8 9 -218 11 -218 3z"/>
<path d="M1810 188 c0 -5 68 -8 150 -8 83 0 150 4 150 9 0 4 -67 8 -150 7 -82
0 -150 -4 -150 -8z"/>
<path d="M2430 188 c0 -5 45 -8 100 -8 55 0 100 3 100 8 0 4 -45 7 -100 7 -55
0 -100 -3 -100 -7z"/>
<path d="M2640 188 c0 -5 18 -8 40 -8 22 0 40 3 40 8 0 4 -18 7 -40 7 -22 0
-40 -3 -40 -7z"/>
<path d="M1298 183 c12 -2 32 -2 45 0 12 2 2 4 -23 4 -25 0 -35 -2 -22 -4z"/>
<path d="M573 120 c-1 -11 2 -20 6 -20 5 0 11 9 14 20 3 12 0 20 -7 20 -6 0
-12 -9 -13 -20z"/>
<path d="M883 121 c0 -11 5 -17 9 -15 11 7 10 34 -1 34 -6 0 -9 -9 -8 -19z"/>
<path d="M1185 130 c-8 -13 -1 -24 14 -19 6 3 7 10 2 18 -6 10 -10 10 -16 1z"/>
<path d="M1493 120 c1 -20 8 -25 20 -14 7 8 -3 34 -13 34 -5 0 -8 -9 -7 -20z"/>
<path d="M1795 130 c-8 -13 4 -32 16 -25 12 8 12 35 0 35 -6 0 -13 -4 -16 -10z"/>
<path d="M2107 119 c4 -16 8 -17 14 -7 13 19 11 28 -5 28 -9 0 -12 -7 -9 -21z"/>
<path d="M2410 120 c0 -19 11 -26 23 -14 8 8 -3 34 -14 34 -5 0 -9 -9 -9 -20z"/>
<path d="M2710 130 c0 -5 5 -10 11 -10 5 0 7 -5 3 -12 -4 -7 -3 -8 4 -4 17 10
15 36 -3 36 -8 0 -15 -4 -15 -10z"/>
<path d="M1575 62 c-7 -18 -8 -18 15 -19 11 -1 20 4 20 10 0 8 3 7 9 -2 9 -13
31 -7 31 8 0 16 -69 18 -75 3z"/>
<path d="M1656 55 c-3 -9 0 -15 9 -15 8 0 15 7 15 15 0 8 -4 15 -9 15 -5 0
-11 -7 -15 -15z"/>
</g>
</svg>
